<?xml version="1.0" encoding="UTF-8"?>
<svg id="Calque_1" xmlns="http://www.w3.org/2000/svg" version="1.1" viewBox="0 0 1080 1080">
  <!-- Generator: Adobe Illustrator 30.4.0, SVG Export Plug-In . SVG Version: 2.1.4 Build 226)  -->
  <defs>
    <style>
      .st0 {
        fill: #fff;
      }

      .st1, .st2 {
        fill: none;
      }

      .st3 {
        fill: #ba9b6e;
      }

      .st4 {
        fill: #0d0e0a;
      }

      .st5 {
        fill: #222221;
      }

      .st2 {
        stroke: #0d0e0a;
        stroke-miterlimit: 10;
        stroke-width: 2.41px;
      }
    </style>
  </defs>
  <path class="st3" d="M332.93,660.53c-.27-.19-.53-.39-.76-.62-.5-.44-.91-.95-1.23-1.5-.39-.66-.65-1.4-.78-2.21l-2.58-15.99c-.41-2.66-1.72-3.99-3.93-3.99-.7,0-1.35.12-1.94.36-.59.25-1.11.59-1.54,1.02s-.76.92-.98,1.47c-.23.56-.34,1.14-.34,1.76l1.72,13.15c.25,1.81.79,3.11,1.63,3.91.21.2.44.37.68.52.73.45,1.6.67,2.61.67v.74c-.25.29-.63.56-1.13.81-.07.04-.14.08-.22.11-.62.29-1.32.54-2.12.74-.8.21-1.63.37-2.49.49-.86.13-1.7.19-2.52.19-2.55,0-4.66-.55-6.34-1.63-.55-.36-1.02-.75-1.42-1.18-.27-.3-.5-.61-.69-.94-.41-.66-.66-1.4-.77-2.21l-2.09-15.99c-.21-1.43-.55-2.46-1.02-3.07-.47-.62-1.18-.92-2.12-.92-1.07,0-1.98.36-2.74,1.1-.75.74-1.22,1.7-1.38,2.89v13.71c0,.78.04,1.49.12,2.12.09.64.22,1.24.4,1.82.06.18.13.37.2.55.08.23.17.46.28.69.07.17.15.34.23.51.29.59.61,1.24.98,1.93h-14.32c1.06,1.81,3.03,3.03,5.29,3.03,0,3.69,2.33,6.26,5.23,7.9,2.9,1.64,6.37,2.36,8.67,2.36,4.58,0,6.57,4.52,6.57,4.52,0,0,1.99-4.52,6.58-4.52s13.89-2.87,13.89-10.26c1.7,0,3.24-.69,4.36-1.81.21-.21.41-.45.58-.69-1.84-.19-3.36-.7-4.57-1.54ZM290.55,662.4l-.05-.06h.05v.06Z"/>
  <line class="st1" x1="276.45" y1="648.71" x2="276.45" y2="645.91"/>
  <path class="st4" d="M343.77,631.04s-.02-.02-.04-.03v-.02s.03.03.04.05Z"/>
  <path class="st5" d="M252.24,617.99c-.79,1.41-1.36,2.66-1.71,3.73-.35,1.08-.53,2.4-.53,3.98l-.06,22.39c0,2.11-.37,4.03-1.12,5.75-.75,1.72-1.82,3.19-3.23,4.42-1.41,1.22-3.15,2.18-5.23,2.86-2.07.68-4.46,1.03-7.15,1.03-5.52,0-9.59-.79-12.22-2.36-2.63-1.58-3.95-3.98-3.95-7.22,0-1.33.25-2.47.75-3.42.5-.96,1.31-1.72,2.43-2.3,1.12-.58,2.56-1,4.32-1.27,1.76-.27,3.89-.4,6.37-.4-.62,1.74-.99,3.46-1.12,5.16-.12,1.7-.04,3.21.25,4.54.29,1.33.72,2.41,1.31,3.24.58.83,1.26,1.24,2.05,1.24.96,0,1.72-.51,2.3-1.52.58-1.02.87-2.64.87-4.88v-27.25c0-1.58-.2-2.9-.59-3.98-.4-1.08-.94-2.32-1.65-3.73h17.91Z"/>
  <path class="st1" d="M368.22,660.46h-.07M382.2,661.23h1.23l.03.03h-1.17"/>
  <path class="st5" d="M373.53,658.64c-.27-.56-.49-1.1-.66-1.64-.18-.54-.31-1.11-.41-1.71-.1-.59-.14-1.26-.14-1.99-.17-6.56-.35-13.13-.52-19.69-.62.01-1.24.03-1.86.04-1.37.27-2.92.48-4.63.58-2.76.16-5.2-.03-7.2-.33.77,1.2,1.31,2.25,1.62,3.15.31.91.46,1.95.46,3.15v9.98c0,1.35-.38,2.46-1.15,3.32-.77.87-1.73,1.3-2.89,1.3s-2.07-.28-2.74-.83c-.67-.56-1.01-1.53-1.01-2.92v-14.95c0-1.73-.67-3.11-1.99-4.13-1.33-1.02-3.09-1.53-5.29-1.53-.69,0-1.41.06-2.16.17-.18.03-.37.06-.55.1-.56.1-1.12.23-1.67.39-.87.25-1.11.45-2.02.7-.57.15-1.04.24-1.36.29.13.15.38.44.62.84.1.16.18.32.26.48h0c.66,1.37.65,2.7.62,3.22-.45,8.87,1.3,16.78,2.12,18.71.04.08.07.15.1.21.42.81.99,1.49.99,1.49.36.42.76.8,1.21,1.14.92.71,1.99,1.27,3.2,1.67.4.14.81.25,1.22.33.83.19,1.68.28,2.56.28,2.08,0,4.02-.56,5.8-1.67,1.79-1.12,3.17-2.54,4.13-4.28v5.95h14.2c-.3-.65-.59-1.26-.86-1.82Z"/>
  <path class="st5" d="M408.82,657.83c-.7-.68-1.16-1.83-1.38-3.46l-1.71-12.72c-.19-1.33-.66-2.52-1.44-3.6-.77-1.07-1.79-1.98-3.04-2.74-1.25-.76-2.73-1.34-4.42-1.74-1.7-.41-3.54-.61-5.53-.61-4.02,0-7.16.53-9.43,1.6-2.27,1.07-3.4,2.56-3.4,4.48,0,1.55.57,2.76,1.72,3.62,1.14.87,2.69,1.3,4.64,1.3.66,0,1.38-.06,2.16-.17-.52-.96-.84-1.96-.97-3.01-.13-1.05-.08-2.01.14-2.87s.59-1.59,1.11-2.16c.51-.57,1.16-.86,1.94-.86.66,0,1.26.17,1.8.5.54.33,1,.79,1.38,1.35.39.57.7,1.24.94,1.99.24.76.41,1.54.52,2.35l.11.94c-.11.96-.61,1.7-1.49,2.24-.89.54-1.94,1-3.15,1.38-1.22.39-2.53.77-3.93,1.16-1.4.39-2.69.9-3.87,1.55-1.18.65-2.17,1.48-2.96,2.52-.79,1.03-1.19,2.38-1.19,4.04,0,2.21.76,3.9,2.27,5.06,1.51,1.16,3.74,1.74,6.69,1.74,4.9,0,8.18-1.53,9.84-4.59.37,1.4,1.26,2.52,2.68,3.35,1.42.83,3.22,1.24,5.39,1.24.81,0,1.62-.06,2.43-.16.81-.11,1.57-.27,2.27-.47.7-.2,1.32-.44,1.85-.72.53-.28.93-.56,1.19-.86v-.66c-1.4,0-2.45-.34-3.15-1.02ZM394.52,656.61c-.68.83-1.61,1.24-2.79,1.24-2.21,0-3.32-1.42-3.32-4.26,0-1.33.23-2.37.69-3.12.46-.76,1.01-1.42,1.66-1.99.64-.57,1.3-1.12,1.96-1.66.66-.54,1.22-1.21,1.66-2.02l1.16,8.35c0,1.47-.34,2.63-1.02,3.46Z"/>
  <path class="st4" d="M343.73,630.94v.05s-.03-.03-.04-.05h.04Z"/>
  <g>
    <path class="st5" d="M353.09,677.5c-.15-.09-.31-.11-.5-.07-.19.04-.33.15-.42.33-.41.76-.86,1.5-1.36,2.23-.15.18-.28.34-.39.5-.12.16-.25.31-.4.46-.06.06-.12.12-.17.2-.06.07-.13.14-.22.2l-.04.09-.09.04-.09.09-.13.04s-.06.01-.09.04h-.17c-.06,0-.09,0-.11-.02-.01-.02-.05-.02-.11-.02l-.04-.04s-.06-.05-.09-.05c-.03,0-.06-.01-.09-.04,0-.03-.01-.04-.04-.04l-.09-.09-.09-.09-.05-.04c-.06-.09-.1-.17-.13-.24-.03-.07-.06-.15-.09-.24-.15-.41-.23-.82-.24-1.25-.02-.42,0-.85.02-1.29.06-1.11.2-2.13.44-3.06.06-.18.04-.34-.07-.5-.1-.16-.24-.25-.41-.28-.18-.06-.34-.04-.48.04-.15.09-.25.22-.31.4-.06.23-.1.42-.13.57-.56-.73-1.29-1.17-2.19-1.32-.76-.12-1.48.02-2.17.42-.69.39-1.23.92-1.64,1.6-.41.64-.66,1.33-.75,2.06-.06.41-.08.82-.07,1.25s.12.84.33,1.25c.15.32.36.61.66.88.29.26.61.44.96.53.41.12.82.12,1.23,0,.41-.12.77-.29,1.09-.53.44-.26.84-.58,1.2-.96.37-.38.69-.77.98-1.18,0,.12.02.22.05.31,0,.47.07.96.22,1.49.18.5.46.93.85,1.29.4.36.87.55,1.42.55.53-.03.97-.22,1.34-.57.36-.35.71-.71,1.03-1.09.7-.91,1.31-1.87,1.84-2.89.2-.41.13-.72-.22-.92ZM345.43,678.68c-.29.41-.64.8-1.05,1.18-.23.2-.47.39-.7.55-.23.16-.48.27-.75.33h-.09s-.06.04-.09.04h-.22l-.04-.04c-.12,0-.19-.02-.22-.04-.03,0-.04,0-.04-.02,0-.02-.02-.02-.04-.02l-.18-.09-.04-.04c-.03-.06-.06-.09-.09-.11-.03-.02-.06-.04-.09-.07v-.04l-.04-.04c-.06-.06-.09-.12-.09-.17-.09-.15-.15-.25-.17-.31-.06-.14-.09-.28-.09-.41v-.68c0-.09.02-.16.04-.22,0-.06,0-.12.02-.2.02-.07.02-.14.02-.2.03-.12.07-.26.13-.44,0-.06,0-.09.02-.11.01-.01.02-.05.02-.11.03,0,.05-.03.07-.09.02-.06.02-.07.02-.04.21-.5.53-.95.97-1.36l.09-.09s.06-.04.09-.04.06-.01.09-.04c.17-.12.31-.19.39-.22h.04s.03-.04.09-.04c.03-.03.06-.04.09-.04.03,0,.06-.01.09-.04.09,0,.16-.02.22-.04h.13c.18-.06.34-.06.48,0h.13c.06,0,.1,0,.13.02.03.01.06.02.09.02.03,0,.05,0,.07.02.01.02.04.02.07.02h.04s.06.04.09.04c0,.03.03.04.09.04.06.03.12.07.18.13l.09.04s.01.04.04.04l.31.31v.04l.04.09c.06.06.1.12.13.17.03.03.04.06.04.09.03.06.04.1.04.13s.01.06.04.09v.35c0,.12.03.24.09.35-.23.47-.5.91-.79,1.32Z"/>
    <path class="st5" d="M363.65,677.87c-.06-.19-.16-.33-.31-.41-.35-.18-.66-.09-.92.26-.32.47-.62.88-.9,1.25-.28.37-.58.76-.9,1.2-.03.03-.06.07-.09.11-.03.04-.07.09-.13.15l-.13.13-.13.13c-.09.06-.19.09-.31.09h-.13l-.05-.04s-.04,0-.04-.02c0-.02-.01-.02-.04-.02v-.04l-.04-.05s-.04-.06-.04-.09-.02-.04-.04-.04v-.09c-.03-.09-.05-.21-.05-.35v-.48c.03-.38.06-.75.09-1.12.03-.36.06-.74.09-1.12.03-.29.04-.58.04-.88s-.04-.58-.13-.88c-.09-.32-.25-.6-.48-.83s-.53-.38-.88-.44c-.38-.06-.74,0-1.07.15-.34.16-.62.37-.85.63-.24.23-.44.49-.63.76-.19.28-.37.56-.55.85l-.09.18c.06-.32.1-.63.13-.92s.07-.59.13-.88c.06-.18.05-.34-.04-.5-.09-.16-.22-.27-.39-.33-.15-.03-.31,0-.48.09-.17.09-.29.22-.35.4-.44,2.3-.53,4.63-.26,6.96.03.18.09.34.2.48.1.15.25.2.46.17.14,0,.3-.06.46-.17.16-.12.23-.28.2-.48,0-.5.04-.93.13-1.31.09-.38.19-.77.31-1.18.09-.32.18-.6.26-.83.09-.23.2-.5.35-.79.15-.26.31-.52.48-.76.17-.25.35-.47.53-.68.09-.12.19-.22.31-.31.06-.06.14-.12.26-.17h.04s.04,0,.04-.02c0-.02.01-.02.04-.02h.17c.06,0,.12.01.18.04l.04.04s.02.04.04.04c0,.03.02.06.05.09v.09s.01.04.04.04v.17c0-.06,0-.07.02-.04.01.03.02.06.02.09v.39c0,.35-.02.69-.04,1.03-.03.34-.06.68-.09,1.03-.06.32-.09.67-.11,1.05-.01.38.02.73.11,1.05.09.32.26.61.5.88.25.26.55.42.9.48.41.06.79-.01,1.14-.22.35-.21.64-.47.88-.79.41-.5.75-.96,1.03-1.38.28-.42.59-.87.94-1.33.11-.15.14-.31.09-.5Z"/>
    <path class="st5" d="M372.82,662.89c-.07-.16-.2-.27-.37-.33-.18-.03-.34,0-.5.07-.16.07-.27.21-.33.41-.32,1.93-.56,3.87-.72,5.82-.16,1.96-.24,3.93-.24,5.91-.67-.61-1.42-.92-2.23-.92-.88-.03-1.66.22-2.34.74s-1.22,1.17-1.6,1.93c-.18.38-.34.78-.48,1.2-.15.42-.24.85-.28,1.29-.04.44-.02.88.07,1.31.09.44.28.83.57,1.18.26.35.6.6,1.01.75.41.15.83.19,1.27.13.41-.06.8-.22,1.18-.48.38-.26.73-.54,1.05-.83.7-.61,1.34-1.33,1.93-2.14.03.41.06.82.09,1.25s.06.84.09,1.25c.03.18.1.33.22.46.12.13.26.2.44.2s.33-.07.48-.2c.15-.13.2-.28.18-.46-.15-1.08-.24-2.23-.28-3.46-.04-1.23-.06-2.45-.04-3.68.01-1.23.06-2.44.13-3.63.07-1.2.17-2.32.28-3.37.15-1.34.32-2.64.53-3.9.03-.18,0-.34-.07-.5ZM370.06,677.63c-.07.12-.15.24-.24.35-.32.55-.72,1.07-1.18,1.53-.24.23-.47.46-.72.68-.25.22-.5.41-.76.59-.18.06-.31.13-.4.22-.06,0-.15.03-.26.09-.03,0-.05,0-.07.02-.01.02-.04.02-.07.02h-.35l-.04-.04h-.13s-.01-.04-.04-.04c-.03-.03-.05-.04-.07-.04-.02,0-.04-.02-.07-.04-.03,0-.06-.02-.09-.05-.06-.03-.12-.07-.17-.13-.03-.03-.04-.06-.04-.09l-.05-.04c-.06-.06-.09-.12-.09-.18-.06-.06-.09-.1-.09-.13l-.04-.13c-.06-.23-.09-.38-.09-.44-.03-.38,0-.73.07-1.05.07-.32.18-.66.33-1.01.2-.59.51-1.11.92-1.58.41-.47.92-.77,1.53-.92.06,0,.1,0,.13-.02.03-.01.07-.02.13-.02h.61c.06.03.1.04.13.04.03,0,.07.02.13.04h.09l.09.04c.06.06.12.1.2.11.07.02.14.05.2.11l.04.04.04.09c.09.03.15.09.18.17l.04.04.04.05c.06.12.1.19.13.22,0,.03.02.06.05.09v.04c.03.06.04.1.04.13,0,.03.01.07.04.13v.39c0,.15.03.26.09.35-.06.12-.12.23-.2.35Z"/>
    <path class="st5" d="M396.75,678.28c-.06-.17-.16-.3-.31-.39-.17-.12-.34-.15-.5-.09-.16.06-.3.16-.41.31-.23.32-.47.68-.72,1.07-.25.39-.49.75-.72,1.07-.09.09-.16.18-.22.26-.06.06-.12.1-.17.13-.03.03-.04.04-.02.04.01,0,0,.01-.07.04-.09.06-.15.09-.17.11-.03.02-.09.02-.18.02h-.09s-.06-.04-.09-.04c0-.03,0-.04-.02-.04-.02,0-.02-.01-.02-.04h-.05v-.04s0-.04-.02-.04c-.01,0-.02-.02-.02-.05l-.04-.04v-.09c-.03-.06-.04-.11-.04-.15,0-.04-.01-.11-.04-.2,0-.09,0-.18.02-.26.01-.09.02-.18.02-.26.03-.35.05-.71.07-1.07.02-.36.04-.73.07-1.11.03-.29.05-.59.07-.88.01-.29-.02-.59-.11-.88-.09-.32-.25-.6-.5-.83-.25-.23-.55-.38-.9-.44-.38-.06-.73,0-1.05.15-.32.16-.6.37-.83.63-.23.23-.45.49-.66.77-.2.28-.38.56-.53.85l-.13.26c0-.2,0-.39.02-.57.01-.17.02-.36.02-.57,0-.26-.03-.52-.09-.77-.06-.25-.19-.47-.4-.68-.2-.23-.46-.37-.76-.4-.31-.03-.59.02-.85.13-.44.2-.83.53-1.18.96-.53.61-.92,1.3-1.18,2.06.06-.73.15-1.42.26-2.06.06-.18.04-.34-.04-.5-.09-.16-.22-.27-.4-.33-.17-.06-.34-.04-.5.04-.16.09-.27.24-.33.44-.44,2.3-.53,4.63-.26,6.96.03.18.09.34.2.48.1.15.25.2.46.18.23,0,.47-.07.7-.22.23-.15.37-.34.4-.57.06-.5.11-.97.15-1.42.04-.45.12-.91.24-1.38.09-.44.22-.87.39-1.31.03-.06.04-.09.02-.09-.01,0,0-.03.07-.09.03-.06.04-.1.04-.13s.01-.07.04-.13c.06-.09.12-.18.17-.28.06-.1.12-.2.18-.28.2-.35.45-.64.75-.88.06-.06.11-.1.17-.13l.09-.09c.05-.02.09-.03.1-.03l-.06.03s.05,0,.07-.02c0,0,0,0,0,0h.02s.13-.01.13-.01v.04h.04c0,.06,0,.1.02.13.01.03.02.03.02,0v.57c-.03.24-.05.47-.05.72s-.01.5-.04.76c-.03.59-.05,1.16-.07,1.71-.01.56-.05,1.13-.11,1.71,0,.23.09.41.28.55.19.13.39.17.61.13.22-.04.42-.18.61-.41.19-.23.28-.6.28-1.1.06-.15.09-.3.11-.46.01-.16.05-.31.11-.46.09-.32.18-.6.28-.85.1-.25.23-.5.37-.76.14-.26.3-.52.46-.77.16-.25.34-.47.55-.68.06-.09.15-.19.26-.31.03-.03.07-.06.13-.09.06-.03.1-.06.13-.09h.09s.04,0,.04-.02.02-.02.04-.02l.09-.04h.04c.09,0,.16.03.22.09l.04.04v.04s.04.06.04.09c.03.03.04.07.04.13.03.03.04.09.04.18v.04c.03.09.04.22.04.39-.03.32-.06.66-.09,1.01-.03.35-.06.68-.09,1.01-.03.35-.06.71-.09,1.07-.03.37.02.72.13,1.07.09.32.25.61.5.85.25.25.55.4.9.46.41.06.78-.02,1.11-.22.34-.21.64-.47.9-.79.23-.32.5-.71.81-1.16.31-.45.57-.85.81-1.2.12-.15.15-.31.09-.48Z"/>
    <path class="st5" d="M406.73,678.04c-.06-.19-.16-.31-.31-.37-.18-.12-.34-.15-.5-.09-.16.06-.3.16-.41.31-.44.59-.94,1.16-1.51,1.71-.57.56-1.21.95-1.91,1.18-.38.15-.73.22-1.05.22-.2.06-.39.06-.57,0h-.13c-.06-.03-.11-.04-.15-.04-.05,0-.09-.02-.15-.05-.03,0-.06,0-.09-.02-.03-.01-.07-.02-.13-.02-.03,0-.06-.01-.09-.04-.03,0-.05,0-.07-.02-.02-.01,0-.02.02-.02-.18-.03-.34-.1-.48-.22l-.13-.13s-.04-.02-.04-.04c-.03,0-.05,0-.07-.02-.02-.02-.04-.02-.07-.02-.03-.06-.09-.13-.17-.22l-.04-.04s-.05-.06-.05-.09l-.26-.39v-.09s-.01-.06-.04-.09c-.03-.06-.04-.11-.04-.15s-.01-.09-.04-.15v-.35c.91.15,1.77.04,2.58-.31.47-.18.9-.42,1.31-.74.41-.32.67-.73.79-1.23.12-.49.04-.95-.22-1.36-.26-.41-.63-.72-1.1-.92-.44-.18-.88-.22-1.33-.13-.45.09-.88.26-1.29.53-.73.56-1.3,1.3-1.71,2.23-.41.93-.5,1.85-.26,2.76.12.47.32.88.61,1.25.29.37.63.66,1.01.9.38.23.8.4,1.25.5.45.1.91.12,1.38.07,1.2-.15,2.23-.58,3.09-1.31.86-.73,1.63-1.55,2.3-2.45.12-.14.15-.31.09-.5ZM398.5,677.41v-.09c.18-.38.36-.7.57-.96.06-.06.09-.1.09-.13.09-.03.15-.09.18-.18.09-.09.16-.15.22-.18l.09-.09.04-.04c.17-.12.32-.2.44-.26l.05-.04s.06-.01.09-.04c.06,0,.11,0,.15-.02.05-.02.09-.02.15-.02h.26c.09,0,.16.01.22.04h.05s.01.04.04.04h.04s.05.04.07.04.04.02.07.04l.04.04s.05.02.05.05c.03,0,.04,0,.04.02,0,.01.01.02.04.02,0,.03,0,.04.02.04-.01-.02,0-.03,0-.02,0,0,.01.01.01.02,0,0,0,0-.01,0,0,.01.01.02.02.04l.09.09v.04l.05.09v.17s0,.05-.02.07c-.01.01-.02.04-.02.07v.04s-.04.05-.04.07c0,.02-.01.04-.04.07v.04h-.04c-.23.26-.54.48-.92.66-.15.06-.33.12-.55.2-.22.07-.4.12-.55.15-.15.03-.31.04-.5.02-.19-.01-.36-.02-.5-.02,0-.06.01-.09.04-.09ZM401.52,675.71s0,0,0,0c0,0,0,0-.01,0,0,.01.01.02.02.04,0-.01,0-.02,0-.03ZM401.52,675.71s0,0,0,0c0,0,0,0-.01,0,0,.01.01.02.02.04,0-.01,0-.02,0-.03Z"/>
    <path class="st5" d="M408.94,682.25s-.02-.04-.02-.07c-.06-.12-.12-.22-.18-.31-.03-.03-.05-.05-.07-.05s-.04-.01-.07-.04c-.06-.06-.16-.09-.31-.09h-.09c-.12,0-.21.01-.26.04-.06.03-.09.05-.11.07-.01.02-.05.04-.11.07-.03.03-.07.1-.13.22-.03.06-.05.15-.05.26v.18c.06.12.12.2.18.26l.13.13c.18.06.29.09.35.09h.09c.09,0,.16-.03.22-.09.09,0,.16-.04.22-.13.09-.03.13-.09.13-.18.06-.12.09-.2.09-.26s0-.09-.02-.11Z"/>
  </g>
  <path class="st0" d="M330.63,665.77"/>
  <path class="st3" d="M296.58,665.17"/>
  <path class="st2" d="M285.94,658.58"/>
  <polygon class="st3" points="290.55 662.34 290.55 662.4 290.5 662.34 290.55 662.34"/>
  <path class="st3" d="M290.09,661.5v.04h-3.76s-.02-.03-.02-.04h3.78Z"/>
  <polygon class="st3" points="290.55 662.34 290.55 662.4 290.5 662.34 290.55 662.34"/>
  <path class="st3" d="M338.77,628.16h0c0-1.44-.57-2.75-1.48-3.72v-9.53c0-2.99-2.43-5.41-5.42-5.41,0-3.25-2.05-5.51-4.6-6.95-2.55-1.45-5.61-2.08-7.62-2.08-4.03,0-5.78-3.97-5.78-3.97,0,0-1.75,3.97-5.79,3.97s-12.21,2.53-12.21,9.03c-1.49,0-2.85.6-3.83,1.58-.98.98-1.59,2.34-1.59,3.83v9.53c-.91.97-1.48,2.27-1.48,3.71h0c-.77.06-2.59.27-4.42,1.56-1.82,1.27-2.64,2.94-2.95,3.64,1.23.07,2.17.07,2.91.05,0,0,2.13-.05,5.05-.64.45-.1.88-.18,1.47-.33,1.21-.3,2.42-.69,3.63-1.16,1.21-.47,2.47-1.04,3.78-1.69v6.51c1.02-1.72,2.45-3.13,4.27-4.24,1.83-1.11,3.85-1.66,6.06-1.66,2.33,0,4.35.66,6.05,1.97s2.86,3.09,3.48,5.35c.45-1.11,1.06-2.1,1.84-2.99.78-.88,1.69-1.64,2.74-2.3,1.04-.66,2.18-1.16,3.41-1.51.44-.12,1.94-.53,3.87-.52,3.31.02,5.91,1.24,7.28,2.02.21-.06.54-.16.94-.29,1.18-.39,1.59-.59,2.36-.82.38-.11.95-.27,1.67-.39-1.75-1.56-3.31-2.38-3.64-2.55ZM325.96,618.66c-1.51,3.99-5.39,6.66-9.65,6.66-5.69,0-10.32-4.62-10.32-10.31,0-2.59.97-5.07,2.72-6.98,1.75-1.89,4.12-3.07,6.67-3.29.2-.02.39.09.48.27.08.19.04.4-.1.54-1.56,1.51-2.41,3.53-2.41,5.69,0,4.37,3.55,7.92,7.92,7.92,1.41,0,2.79-.37,4.01-1.08.17-.1.38-.08.54.05.15.13.21.34.14.53Z"/>
  <path class="st5" d="M285.53,639.97v13.95c0,.78-.05,1.49-.15,2.12-.11.64-.25,1.24-.43,1.82-.1.29-.2.59-.33.88-.11.29-.24.58-.38.87-.28.58-.58,1.21-.9,1.89-2.3.01-4.59.01-6.89.01v-6.39c-1.04,1.86-2.52,3.39-4.44,4.59s-4,1.8-6.24,1.8c-1.4,0-2.76-.22-4.06-.65-1.3-.43-2.45-1.03-3.45-1.8-.99-.77-1.78-1.71-2.35-2.82-.58-1.12-.87-2.36-.87-3.73v-15.02c0-.82-.02-1.56-.06-2.2-.05-.64-.16-1.18-.35-1.61-.18-.44-.49-.77-.93-.99-.43-.23-1.06-.35-1.89-.35v-.74c.37-.33.89-.63,1.55-.9.66-.27,1.39-.52,2.17-.75.79-.22,1.59-.4,2.39-.52.81-.13,1.59-.19,2.33-.19,2.36,0,4.25.55,5.68,1.65,1.43,1.09,2.14,2.57,2.14,4.43v16.08c0,1.49.36,2.53,1.08,3.13.73.6,1.71.9,2.95.9s2.28-.47,3.11-1.4c.82-.93,1.24-2.12,1.24-3.56v-10.74c0-.85-.09-2.03-.5-3.38-.51-1.67-1.3-2.88-1.88-3.63.92.17,1.68.27,2.21.33,1.62.19,2.79.22,5.27.3.75.02,1.46.04,1.88.05.48.67,1.14,1.72,1.58,3.09.45,1.41.53,2.64.52,3.48Z"/>
</svg>