<?xml version="1.0" encoding="UTF-8"?>
<svg id="Calque_1" xmlns="http://www.w3.org/2000/svg" version="1.1" viewBox="0 0 297.64 147.61">
  <!-- Generator: Adobe Illustrator 30.4.0, SVG Export Plug-In . SVG Version: 2.1.4 Build 226)  -->
  <defs>
    <style>
      .st0 {
        fill: #5b9ead;
      }

      .st1 {
        fill: #f2c4b2;
      }
    </style>
  </defs>
  <path class="st1" d="M173.52,91.46c-.36-.26-.71-.52-1.01-.83-.68-.59-1.23-1.28-1.65-2.01-.53-.89-.88-1.88-1.05-2.97l-3.46-21.45c-.55-3.56-2.31-5.35-5.27-5.35-.94,0-1.81.16-2.6.49-.8.33-1.49.79-2.07,1.36-.58.58-1.02,1.24-1.31,1.98-.31.75-.46,1.52-.46,2.36l2.31,17.63c.33,2.43,1.06,4.17,2.18,5.25.28.27.59.49.92.7.97.6,2.14.89,3.5.89v1c-.34.39-.85.75-1.52,1.08-.09.06-.19.11-.29.15-.84.39-1.78.72-2.85.99-1.07.28-2.18.5-3.34.66-1.15.17-2.28.25-3.38.25-3.42,0-6.25-.73-8.5-2.18-.74-.48-1.37-1.01-1.91-1.58-.36-.41-.67-.82-.92-1.26-.55-.89-.89-1.88-1.03-2.97l-2.81-21.45c-.28-1.91-.74-3.3-1.37-4.11-.63-.83-1.58-1.24-2.84-1.24-1.43,0-2.65.49-3.67,1.48-1.01.99-1.64,2.28-1.86,3.87v18.39c0,1.05.06,2,.17,2.85.12.85.29,1.66.53,2.44.08.24.18.49.27.74.11.3.23.61.38.92.09.23.2.46.3.68.39.8.82,1.67,1.32,2.59h-19.21c1.42,2.43,4.07,4.07,7.1,4.07,0,4.95,3.12,8.39,7.01,10.59,3.89,2.2,8.55,3.17,11.63,3.17,6.14,0,8.81,6.06,8.81,6.06,0,0,2.67-6.06,8.83-6.06s18.63-3.85,18.63-13.76c2.28,0,4.34-.93,5.85-2.43.28-.28.55-.6.77-.93-2.46-.25-4.5-.93-6.13-2.06ZM116.68,93.97l-.06-.08h.06v.08Z"/>
  <path class="st0" d="M65.3,34.4c-1.06,1.89-1.82,3.57-2.29,5-.47,1.45-.71,3.22-.71,5.34l-.08,30.03c0,2.83-.5,5.41-1.5,7.71s-2.44,4.28-4.33,5.93c-1.89,1.64-4.22,2.92-7.01,3.84-2.78.91-5.98,1.38-9.59,1.38-7.4,0-12.86-1.06-16.39-3.17-3.53-2.12-5.3-5.34-5.3-9.68,0-1.78.34-3.31,1.01-4.59.67-1.29,1.76-2.31,3.26-3.08s3.43-1.34,5.79-1.7c2.36-.36,5.22-.54,8.54-.54-.83,2.33-1.33,4.64-1.5,6.92-.16,2.28-.05,4.31.34,6.09.39,1.78.97,3.23,1.76,4.35.78,1.11,1.69,1.66,2.75,1.66,1.29,0,2.31-.68,3.08-2.04.78-1.37,1.17-3.54,1.17-6.55v-36.55c0-2.12-.27-3.89-.79-5.34-.54-1.45-1.26-3.11-2.21-5h24.02,0Z"/>
  <path class="st0" d="M227.98,88.92c-.36-.75-.66-1.48-.89-2.2-.24-.72-.42-1.49-.55-2.29-.13-.79-.19-1.69-.19-2.67-.23-8.8-.47-17.61-.7-26.41-.83.01-1.66.04-2.49.05-1.84.36-3.92.64-6.21.78-3.7.21-6.97-.04-9.66-.44,1.03,1.61,1.76,3.02,2.17,4.22.42,1.22.62,2.62.62,4.22v13.39c0,1.81-.51,3.3-1.54,4.45-1.03,1.17-2.32,1.74-3.88,1.74s-2.78-.38-3.68-1.11c-.9-.75-1.35-2.05-1.35-3.92v-20.05c0-2.32-.9-4.17-2.67-5.54-1.78-1.37-4.14-2.05-7.1-2.05-.93,0-1.89.08-2.9.23-.24.04-.5.08-.74.13-.75.13-1.5.31-2.24.52-1.17.34-1.49.6-2.71.94-.76.2-1.39.32-1.82.39.17.2.51.59.83,1.13.13.21.24.43.35.64h0c.89,1.84.87,3.62.83,4.32-.6,11.9,1.74,22.51,2.84,25.09.05.11.09.2.13.28.56,1.09,1.33,2,1.33,2,.48.56,1.02,1.07,1.62,1.53,1.23.95,2.67,1.7,4.29,2.24.54.19,1.09.34,1.64.44,1.11.25,2.25.38,3.43.38,2.79,0,5.39-.75,7.78-2.24,2.4-1.5,4.25-3.41,5.54-5.74v7.98h19.05c-.4-.87-.79-1.69-1.15-2.44h0Z"/>
  <path class="st0" d="M275.33,87.82h-.02v.02c-.94-.91-1.55-2.46-1.85-4.64l-2.29-17.06c-.26-1.79-.89-3.38-1.93-4.83-1.04-1.44-2.4-2.66-4.08-3.68-1.68-1.02-3.66-1.79-5.93-2.33-2.28-.55-4.75-.82-7.42-.82-5.39,0-9.6.71-12.64,2.15-3.05,1.43-4.56,3.43-4.56,6.01,0,2.07.76,3.7,2.3,4.85,1.53,1.17,3.61,1.74,6.23,1.74.88,0,1.85-.08,2.89-.22-.69-1.29-1.12-2.63-1.3-4.04-.17-1.41-.11-2.7.19-3.85.29-1.15.79-2.13,1.49-2.9.68-.76,1.55-1.15,2.6-1.15.89,0,1.69.23,2.41.67.73.44,1.35,1.06,1.86,1.81.52.76.93,1.66,1.26,2.67.32,1.02.55,2.07.69,3.15l.15,1.26c-.15,1.29-.82,2.28-2,3.01-1.19.72-2.6,1.34-4.22,1.85-1.64.52-3.4,1.03-5.27,1.55-1.88.53-3.61,1.21-5.19,2.08-1.59.87-2.91,1.99-3.97,3.38-1.06,1.38-1.6,3.19-1.6,5.42,0,2.97,1.02,5.23,3.04,6.79.96.73,2.15,1.3,3.56,1.69.04.02.09.03.14.04,1.51.4,3.27.6,5.28.6,6.57,0,10.97-2.05,13.2-6.15.49,1.87,1.69,3.38,3.59,4.49s4.32,1.66,7.23,1.66c1.09,0,2.17-.08,3.26-.21,1.09-.15,2.1-.37,3.04-.63.94-.27,1.77-.59,2.48-.97.72-.37,1.25-.75,1.6-1.15v-.89c-1.88,0-3.29-.45-4.22-1.37ZM256.13,86.2c-.91,1.11-2.16,1.66-3.74,1.66-2.96,0-4.45-1.9-4.45-5.71,0-1.78.31-3.18.92-4.18.62-1.02,1.36-1.91,2.23-2.67.86-.77,1.74-1.51,2.63-2.23.88-.72,1.63-1.62,2.22-2.71l1.56,11.2c0,1.97-.46,3.53-1.37,4.64Z"/>
  <path class="st1" d="M181.36,48.04c0-1.93-.77-3.69-1.99-4.99v-12.78c0-4.01-3.26-7.26-7.27-7.26,0-4.35-2.75-7.39-6.17-9.32-3.42-1.94-7.52-2.79-10.22-2.79-5.4,0-7.75-5.32-7.75-5.32,0,0-2.35,5.32-7.77,5.32s-16.37,3.4-16.37,12.11c-2,0-3.82.81-5.14,2.12-1.31,1.32-2.13,3.14-2.13,5.14v12.78c-1.22,1.3-1.99,3.05-1.99,4.98-.52.04-1.38.13-2.43.43-1.05.29-2.27.8-3.5,1.66-2.44,1.7-3.54,3.94-3.95,4.88h.07c.91.05,1.7.08,2.39.09.54,0,1.01-.01,1.44-.02,0,0,2.86-.07,6.77-.86.61-.13,1.18-.24,1.98-.44,1.62-.4,3.24-.93,4.86-1.56,1.63-.63,3.32-1.39,5.07-2.26v8.73c1.37-2.31,3.29-4.2,5.73-5.69,2.46-1.49,5.17-2.22,8.13-2.22,3.13,0,5.83.88,8.11,2.64,2.28,1.75,3.84,4.14,4.67,7.17.61-1.49,1.42-2.81,2.47-4.01,1.05-1.18,2.27-2.2,3.68-3.08,1.39-.89,2.92-1.56,4.57-2.03.59-.16,2.6-.71,5.19-.69,4.44.02,7.93,1.66,9.76,2.7.01,0,.02-.01.03-.01.29-.08.72-.21,1.23-.37.2-.07.38-.13.55-.19.01,0,.03-.01.04-.02.65-.22,1.1-.39,1.53-.54h.01c.21-.09.42-.16.64-.23.13-.04.26-.08.4-.12.51-.15,1.27-.37,2.24-.53-2.35-2.09-4.44-3.19-4.88-3.42ZM164.18,35.3c-2.03,5.35-7.23,8.93-12.95,8.93-7.63,0-13.84-6.19-13.84-13.83,0-3.47,1.3-6.8,3.65-9.36,2.35-2.53,5.53-4.11,8.95-4.41.26-.03.52.12.64.36.11.26.05.54-.13.73-2.1,2.02-3.24,4.73-3.24,7.63,0,5.86,4.76,10.62,10.63,10.62,1.89,0,3.74-.5,5.37-1.45.23-.13.51-.1.73.07.2.17.28.46.19.71Z"/>
  <path class="st0" d="M109.95,63.88v18.71c0,1.05-.07,2-.2,2.84-.15.86-.34,1.66-.58,2.44-.13.39-.27.79-.44,1.18-.15.39-.32.78-.51,1.17-.38.78-.78,1.62-1.21,2.53-3.08.01-6.16.01-9.24.01v-8.57c-1.39,2.49-3.38,4.55-5.96,6.16-2.58,1.61-5.37,2.41-8.37,2.41-1.88,0-3.7-.3-5.45-.87-1.74-.58-3.29-1.38-4.63-2.41-1.33-1.03-2.39-2.29-3.15-3.78-.78-1.5-1.17-3.17-1.17-5v-20.15c0-1.1-.03-2.09-.08-2.95-.07-.86-.21-1.58-.47-2.16-.24-.59-.66-1.03-1.25-1.33-.58-.31-1.42-.47-2.53-.47v-.99c.5-.44,1.19-.84,2.08-1.21s1.86-.7,2.91-1.01c1.06-.3,2.13-.54,3.21-.7,1.09-.17,2.13-.25,3.13-.25,3.17,0,5.7.74,7.62,2.21,1.92,1.46,2.87,3.45,2.87,5.94v21.57c0,2,.48,3.39,1.45,4.2.98.8,2.29,1.21,3.96,1.21s3.06-.63,4.17-1.88c1.1-1.25,1.66-2.84,1.66-4.77v-14.41c0-1.14-.12-2.72-.67-4.53-.68-2.24-1.74-3.86-2.52-4.87,1.23.23,2.25.36,2.96.44,2.17.25,3.74.3,7.07.4,1.01.03,1.96.05,2.52.07.64.9,1.53,2.31,2.12,4.14.6,1.89.71,3.54.7,4.67h0Z"/>
  <g>
    <path class="st1" d="M224.55,107.63h0c.64-.48.94-1.38.74-2.17-.15-.55-.64-1.05-1.23-1.05-.4,0-.85.05-1.19.4-.59.59-.79,1.38-.59,2.08.3.89,1.49,1.33,2.28.74Z"/>
    <path class="st1" d="M271.68,124.06c-1.79,3.33-4.71,7.06-8.73,7.7-1.44.2-3.13-.1-4.18-1.19-1.14-1.09-1.39-2.83-1.34-4.32.06-1.09.2-2.13.5-3.22,4.72,1.54,10.22-.99,12.11-5.66.85-2.13.7-4.91-1.58-6.1-1.95-.99-4.28-.55-6.01.64-1.89,1.34-3.33,3.28-4.47,5.31-1.18,2.03-2.13,4.27-2.57,6.55,0,.03,0,.07-.02.1-.17.09-.32.23-.44.45-.94,1.69-2.02,3.27-3.27,4.67-1.03,1.14-2.23,2.42-3.72,2.83-.93.29-1.98,0-2.13-1.05-.29-1.69.74-3.58,1.49-5.02.95-1.89,1.84-3.82,2.39-5.8.44-1.73.74-3.72-.06-5.41-.6-1.39-2.03-2.18-3.52-2.18-1.44-.04-2.78.69-3.92,1.54-.99.74-1.93,1.69-2.78,2.63-.2-2.28-1.74-4.23-4.22-4.17-1.53,0-2.87.73-4.06,1.73.2-.45.34-.89.54-1.29.65-1.34-1.34-2.54-1.98-1.2-1.54,3.38-3.03,6.75-4.47,10.13-.14.24-.4.85-.55,1.14-.21.5-.42,1-.64,1.5-.97,1.83-2.07,3.6-3.46,5.13-.85.9-2.39,2.59-3.82,2.04-1.34-.45-.7-2.78-.41-3.83.65-2.28,1.64-4.46,2.54-6.65,1.18-2.83,2.43-5.61,3.71-8.38.65-1.34-1.34-2.48-1.98-1.14-1.34,2.79-2.54,5.66-3.77,8.49-.52,1.26-1.08,2.51-1.59,3.78-.17.09-.33.23-.45.44-1.39,2.44-2.98,5.31-5.36,7-.7.5-1.59.94-2.48.59-.9-.34-1.29-1.18-1.35-2.08-.09-1.38.26-2.77.7-4.06v-.04c.44-1.43,1.05-2.87,1.64-4.26,1.19-2.89,2.43-5.7,3.67-8.59l.59-1.34h4.32c1.44,0,1.44-2.28,0-2.28h-3.27c.9-2.03,1.8-4.01,2.74-6.05.25-.55.14-1.25-.45-1.54-.45-.3-1.28-.15-1.54.4-1.09,2.39-2.19,4.82-3.27,7.2h-3.33c-1.49,0-1.49,2.28,0,2.28h2.34c-1.44,3.24-2.78,6.4-4.12,9.63-1.25,2.89-2.83,6.42-2.19,9.63.54,2.89,3.62,4.23,6.2,3.04,1.54-.7,2.77-1.99,3.82-3.33.08-.1.15-.2.22-.3.04,1.29.44,2.53,1.62,3.29,1.75,1.07,3.64.38,5.14-.72-.14.53-.01,1.06.5,1.36.46.3,1.29.15,1.55-.4,1.13-2.62,2.26-5.24,3.4-7.84.07-.15.16-.29.23-.43v-.03c.09-.14.13-.29.15-.42.33-.75.65-1.51.98-2.25.79-1.53,1.73-2.98,2.78-4.27,1.14-1.43,2.62-3.12,4.41-3.67,1.54-.5,2.63.5,2.68,2.13.05,2.24-.99,4.32-1.78,6.31-1.25,3.12-2.48,6.21-3.83,9.28-.25.59-.14,1.23.45,1.58.45.3,1.28.15,1.54-.4,1.34-3.18,2.63-6.31,3.92-9.48.05-.21.14-.35.2-.55,1.28-2.83,3.18-5.66,5.6-7.7.85-.7,2.1-1.49,3.18-1.34,1.4.24,1.49,1.87,1.34,3.07-.2,1.83-.9,3.67-1.69,5.31-.88,1.94-2.02,3.87-2.42,6.01-.3,1.43-.19,3.03.89,4.11,1.09,1.1,2.69,1.35,4.12.9,1.73-.6,3.23-1.89,4.47-3.23.77-.85,1.47-1.74,2.12-2.67.12.84.34,1.65.71,2.42.9,1.93,2.79,3.17,4.87,3.47,5.75.84,10.42-4.17,12.85-8.79h-.02c.7-1.28-1.28-2.48-1.98-1.14ZM261.62,115.87c1.04-1.25,2.39-2.63,4.02-2.83,1.54-.24,2.78.6,2.63,2.19-.2,1.97-1.69,3.71-3.27,4.7-1.93,1.25-4.17,1.55-6.31.9.74-1.84,1.79-3.53,2.93-4.96Z"/>
    <path class="st1" d="M278.45,131.91c-.16-.6-.66-1.05-1.25-1.05-.4,0-.85.05-1.19.35-.59.59-.79,1.38-.59,2.08.3.94,1.49,1.34,2.28.79h0c.66-.48.95-1.38.75-2.17Z"/>
  </g>
</svg>
