<?xml version="1.0" encoding="UTF-8"?>
<svg id="Calque_1" xmlns="http://www.w3.org/2000/svg" version="1.1" viewBox="0 0 1080 1080">
  <!-- Generator: Adobe Illustrator 30.4.0, SVG Export Plug-In . SVG Version: 2.1.4 Build 226)  -->
  <defs>
    <style>
      .st0 {
        fill: #0d0e0a;
      }

      .st1 {
        fill: #fff;
      }

      .st2, .st3 {
        fill: none;
      }

      .st4 {
        fill: #ba9b6e;
      }

      .st5 {
        fill: #f2c4b2;
      }

      .st3 {
        stroke: #0d0e0a;
        stroke-miterlimit: 10;
        stroke-width: 2.41px;
      }
    </style>
  </defs>
  <path class="st5" d="M332.93,660.53c-.27-.19-.53-.39-.76-.62-.5-.44-.91-.95-1.23-1.5-.39-.66-.65-1.4-.78-2.21l-2.58-15.99c-.41-2.66-1.72-3.99-3.93-3.99-.7,0-1.35.12-1.94.36-.59.25-1.11.59-1.54,1.02s-.76.92-.98,1.47c-.23.56-.34,1.14-.34,1.76l1.72,13.15c.25,1.81.79,3.11,1.63,3.91.21.2.44.37.68.52.73.45,1.6.67,2.61.67v.74c-.25.29-.63.56-1.13.81-.07.04-.14.08-.22.11-.62.29-1.32.54-2.12.74-.8.21-1.63.37-2.49.49-.86.13-1.7.19-2.52.19-2.55,0-4.66-.55-6.34-1.63-.55-.36-1.02-.75-1.42-1.18-.27-.3-.5-.61-.69-.94-.41-.66-.66-1.4-.77-2.21l-2.09-15.99c-.21-1.43-.55-2.46-1.02-3.07-.47-.62-1.18-.92-2.12-.92-1.07,0-1.98.36-2.74,1.1-.75.74-1.22,1.7-1.38,2.89v13.71c0,.78.04,1.49.12,2.12.09.64.22,1.24.4,1.82.06.18.13.37.2.55.08.23.17.46.28.69.07.17.15.34.23.51.29.59.61,1.24.98,1.93h-14.32c1.06,1.81,3.03,3.03,5.29,3.03,0,3.69,2.33,6.26,5.23,7.9,2.9,1.64,6.37,2.36,8.67,2.36,4.58,0,6.57,4.52,6.57,4.52,0,0,1.99-4.52,6.58-4.52s13.89-2.87,13.89-10.26c1.7,0,3.24-.69,4.36-1.81.21-.21.41-.45.58-.69-1.84-.19-3.36-.7-4.57-1.54h0ZM290.55,662.4l-.05-.06h.05v.06Z"/>
  <line class="st2" x1="276.45" y1="648.71" x2="276.45" y2="645.91"/>
  <path class="st0" d="M343.77,631.04s-.02-.02-.04-.03v-.02s.03.03.04.05h0Z"/>
  <path class="st1" d="M252.24,617.99c-.79,1.41-1.36,2.66-1.71,3.73-.35,1.08-.53,2.4-.53,3.98l-.06,22.39c0,2.11-.37,4.03-1.12,5.75s-1.82,3.19-3.23,4.42c-1.41,1.22-3.15,2.18-5.23,2.86-2.07.68-4.46,1.03-7.15,1.03-5.52,0-9.59-.79-12.22-2.36-2.63-1.58-3.95-3.98-3.95-7.22,0-1.33.25-2.47.75-3.42.5-.96,1.31-1.72,2.43-2.3s2.56-1,4.32-1.27c1.76-.27,3.89-.4,6.37-.4-.62,1.74-.99,3.46-1.12,5.16-.12,1.7-.04,3.21.25,4.54.29,1.33.72,2.41,1.31,3.24.58.83,1.26,1.24,2.05,1.24.96,0,1.72-.51,2.3-1.52.58-1.02.87-2.64.87-4.88v-27.25c0-1.58-.2-2.9-.59-3.98-.4-1.08-.94-2.32-1.65-3.73h17.91,0Z"/>
  <path class="st2" d="M368.22,660.46h-.07M382.2,661.23h1.23l.03.03h-1.17"/>
  <path class="st1" d="M373.53,658.64c-.27-.56-.49-1.1-.66-1.64-.18-.54-.31-1.11-.41-1.71-.1-.59-.14-1.26-.14-1.99-.17-6.56-.35-13.13-.52-19.69-.62.01-1.24.03-1.86.04-1.37.27-2.92.48-4.63.58-2.76.16-5.2-.03-7.2-.33.77,1.2,1.31,2.25,1.62,3.15.31.91.46,1.95.46,3.15v9.98c0,1.35-.38,2.46-1.15,3.32-.77.87-1.73,1.3-2.89,1.3s-2.07-.28-2.74-.83c-.67-.56-1.01-1.53-1.01-2.92v-14.95c0-1.73-.67-3.11-1.99-4.13-1.33-1.02-3.09-1.53-5.29-1.53-.69,0-1.41.06-2.16.17-.18.03-.37.06-.55.1-.56.1-1.12.23-1.67.39-.87.25-1.11.45-2.02.7-.57.15-1.04.24-1.36.29.13.15.38.44.62.84.1.16.18.32.26.48h0c.66,1.37.65,2.7.62,3.22-.45,8.87,1.3,16.78,2.12,18.71.04.08.07.15.1.21.42.81.99,1.49.99,1.49.36.42.76.8,1.21,1.14.92.71,1.99,1.27,3.2,1.67.4.14.81.25,1.22.33.83.19,1.68.28,2.56.28,2.08,0,4.02-.56,5.8-1.67,1.79-1.12,3.17-2.54,4.13-4.28v5.95h14.2c-.3-.65-.59-1.26-.86-1.82h0Z"/>
  <path class="st1" d="M408.82,657.83c-.7-.68-1.16-1.83-1.38-3.46l-1.71-12.72c-.19-1.33-.66-2.52-1.44-3.6-.77-1.07-1.79-1.98-3.04-2.74s-2.73-1.34-4.42-1.74c-1.7-.41-3.54-.61-5.53-.61-4.02,0-7.16.53-9.43,1.6-2.27,1.07-3.4,2.56-3.4,4.48,0,1.55.57,2.76,1.72,3.62,1.14.87,2.69,1.3,4.64,1.3.66,0,1.38-.06,2.16-.17-.52-.96-.84-1.96-.97-3.01s-.08-2.01.14-2.87.59-1.59,1.11-2.16c.51-.57,1.16-.86,1.94-.86.66,0,1.26.17,1.8.5.54.33,1,.79,1.38,1.35.39.57.7,1.24.94,1.99.24.76.41,1.54.52,2.35l.11.94c-.11.96-.61,1.7-1.49,2.24-.89.54-1.94,1-3.15,1.38-1.22.39-2.53.77-3.93,1.16-1.4.39-2.69.9-3.87,1.55-1.18.65-2.17,1.48-2.96,2.52-.79,1.03-1.19,2.38-1.19,4.04,0,2.21.76,3.9,2.27,5.06,1.51,1.16,3.74,1.74,6.69,1.74,4.9,0,8.18-1.53,9.84-4.59.37,1.4,1.26,2.52,2.68,3.35,1.42.83,3.22,1.24,5.39,1.24.81,0,1.62-.06,2.43-.16.81-.11,1.57-.27,2.27-.47.7-.2,1.32-.44,1.85-.72.53-.28.93-.56,1.19-.86v-.66c-1.4,0-2.45-.34-3.15-1.02h-.01ZM394.52,656.61c-.68.83-1.61,1.24-2.79,1.24-2.21,0-3.32-1.42-3.32-4.26,0-1.33.23-2.37.69-3.12.46-.76,1.01-1.42,1.66-1.99.64-.57,1.3-1.12,1.96-1.66s1.22-1.21,1.66-2.02l1.16,8.35c0,1.47-.34,2.63-1.02,3.46Z"/>
  <path class="st0" d="M343.73,630.94v.05s-.03-.03-.04-.05h.04Z"/>
  <path class="st1" d="M330.63,665.77"/>
  <path class="st4" d="M296.58,665.17"/>
  <path class="st3" d="M285.94,658.58"/>
  <polygon class="st4" points="290.55 662.34 290.55 662.4 290.5 662.34 290.55 662.34"/>
  <path class="st4" d="M290.09,661.5v.04h-3.76s-.02-.03-.02-.04h3.78Z"/>
  <polygon class="st4" points="290.55 662.34 290.55 662.4 290.5 662.34 290.55 662.34"/>
  <path class="st5" d="M338.77,628.16h0c0-1.44-.57-2.75-1.48-3.72v-9.53c0-2.99-2.43-5.41-5.42-5.41,0-3.25-2.05-5.51-4.6-6.95-2.55-1.45-5.61-2.08-7.62-2.08-4.03,0-5.78-3.97-5.78-3.97,0,0-1.75,3.97-5.79,3.97s-12.21,2.53-12.21,9.03c-1.49,0-2.85.6-3.83,1.58-.98.98-1.59,2.34-1.59,3.83v9.53c-.91.97-1.48,2.27-1.48,3.71h0c-.77.06-2.59.27-4.42,1.56-1.82,1.27-2.64,2.94-2.95,3.64,1.23.07,2.17.07,2.91.05,0,0,2.13-.05,5.05-.64.45-.1.88-.18,1.47-.33,1.21-.3,2.42-.69,3.63-1.16s2.47-1.04,3.78-1.69v6.51c1.02-1.72,2.45-3.13,4.27-4.24,1.83-1.11,3.85-1.66,6.06-1.66,2.33,0,4.35.66,6.05,1.97s2.86,3.09,3.48,5.35c.45-1.11,1.06-2.1,1.84-2.99.78-.88,1.69-1.64,2.74-2.3,1.04-.66,2.18-1.16,3.41-1.51.44-.12,1.94-.53,3.87-.52,3.31.02,5.91,1.24,7.28,2.02.21-.06.54-.16.94-.29,1.18-.39,1.59-.59,2.36-.82.38-.11.95-.27,1.67-.39-1.75-1.56-3.31-2.38-3.64-2.55h0ZM325.96,618.66c-1.51,3.99-5.39,6.66-9.65,6.66-5.69,0-10.32-4.62-10.32-10.31,0-2.59.97-5.07,2.72-6.98,1.75-1.89,4.12-3.07,6.67-3.29.2-.02.39.09.48.27.08.19.04.4-.1.54-1.56,1.51-2.41,3.53-2.41,5.69,0,4.37,3.55,7.92,7.92,7.92,1.41,0,2.79-.37,4.01-1.08.17-.1.38-.08.54.05.15.13.21.34.14.53h0Z"/>
  <path class="st1" d="M285.53,639.97v13.95c0,.78-.05,1.49-.15,2.12-.11.64-.25,1.24-.43,1.82-.1.29-.2.59-.33.88-.11.29-.24.58-.38.87-.28.58-.58,1.21-.9,1.89-2.3.01-4.59.01-6.89.01v-6.39c-1.04,1.86-2.52,3.39-4.44,4.59s-4,1.8-6.24,1.8c-1.4,0-2.76-.22-4.06-.65-1.3-.43-2.45-1.03-3.45-1.8-.99-.77-1.78-1.71-2.35-2.82-.58-1.12-.87-2.36-.87-3.73v-15.02c0-.82-.02-1.56-.06-2.2-.05-.64-.16-1.18-.35-1.61-.18-.44-.49-.77-.93-.99-.43-.23-1.06-.35-1.89-.35v-.74c.37-.33.89-.63,1.55-.9s1.39-.52,2.17-.75c.79-.22,1.59-.4,2.39-.52.81-.13,1.59-.19,2.33-.19,2.36,0,4.25.55,5.68,1.65,1.43,1.09,2.14,2.57,2.14,4.43v16.08c0,1.49.36,2.53,1.08,3.13.73.6,1.71.9,2.95.9s2.28-.47,3.11-1.4c.82-.93,1.24-2.12,1.24-3.56v-10.74c0-.85-.09-2.03-.5-3.38-.51-1.67-1.3-2.88-1.88-3.63.92.17,1.68.27,2.21.33,1.62.19,2.79.22,5.27.3.75.02,1.46.04,1.88.05.48.67,1.14,1.72,1.58,3.09.45,1.41.53,2.64.52,3.48h0Z"/>
  <g>
    <path class="st5" d="M357.39,686.06c-.33.96-.59,2-.52,3.03.04.67.33,1.29,1,1.55s1.33-.07,1.85-.44c1.78-1.26,2.96-3.4,4-5.22.55-.96,2.04-.11,1.48.85-.74,1.33-1.55,2.59-2.48,3.77-.78,1-1.7,1.96-2.85,2.48-1.92.89-4.22-.11-4.62-2.26-.48-2.4.7-5.03,1.63-7.18,1-2.41,2-4.77,3.07-7.18h-1.74c-1.11,0-1.11-1.7,0-1.7h2.48c.81-1.78,1.63-3.59,2.44-5.37.19-.41.81-.52,1.15-.3.44.22.52.74.33,1.15-.7,1.52-1.37,3-2.04,4.51h2.44c1.07,0,1.07,1.7,0,1.7h-3.22l-.44,1c-.93,2.15-1.85,4.25-2.74,6.4-.44,1.04-.89,2.11-1.22,3.18Z"/>
    <path class="st5" d="M372.16,685.84c-.96,1.81-2.15,3.66-3.7,5.03-1.18,1.04-2.85,1.89-4.37.96-1.44-.93-1.33-2.81-1-4.26.48-2,1.37-3.85,2.15-5.74.92-2.11,1.81-4.25,2.81-6.33.48-1,1.96-.15,1.48.85-.96,2.07-1.89,4.14-2.77,6.25-.67,1.63-1.41,3.26-1.89,4.96-.22.78-.7,2.52.3,2.85,1.07.41,2.22-.85,2.85-1.52,1.07-1.18,1.92-2.55,2.66-3.96.52-.96,2.04-.07,1.48.89ZM370.97,672.59c-.59.44-1.48.11-1.7-.55-.15-.52,0-1.11.44-1.55.26-.26.59-.3.89-.3.44,0,.81.37.92.78.15.59-.07,1.26-.55,1.63Z"/>
    <path class="st5" d="M395.13,685.84c-.81,1.44-1.74,2.78-2.85,4-.92,1-2.04,1.96-3.33,2.41-1.07.33-2.26.15-3.07-.67-.81-.81-.89-2-.67-3.07.3-1.59,1.15-3.03,1.81-4.48.59-1.22,1.11-2.59,1.26-3.96.11-.89.04-2.11-1-2.29-.81-.11-1.74.48-2.37,1-1.81,1.52-3.22,3.63-4.18,5.74-.04.15-.11.26-.15.41-.96,2.37-1.92,4.7-2.92,7.07-.19.41-.81.52-1.15.3-.44-.26-.52-.74-.33-1.18,1-2.29,1.92-4.59,2.85-6.92.59-1.48,1.37-3.03,1.33-4.7-.04-1.22-.85-1.96-2-1.59-1.33.41-2.44,1.67-3.29,2.74-.78.96-1.48,2.04-2.07,3.18-1.18,2.7-2.37,5.44-3.55,8.18-.19.41-.81.52-1.15.3-.44-.26-.52-.74-.33-1.18.3-.67.59-1.33.89-2,.74-1.7,1.48-3.44,2.22-5.18.11-.22.3-.67.41-.85,1.07-2.52,2.18-5.03,3.33-7.55.48-1,1.96-.11,1.48.89-.15.3-.26.63-.41.96.89-.74,1.89-1.29,3.03-1.29,1.85-.04,3,1.41,3.15,3.11.63-.7,1.33-1.41,2.07-1.96.85-.63,1.85-1.18,2.92-1.15,1.11,0,2.18.59,2.63,1.63.59,1.26.37,2.74.04,4.03-.41,1.48-1.07,2.92-1.78,4.33-.56,1.07-1.33,2.48-1.11,3.74.11.78.89,1,1.59.78,1.11-.3,2-1.26,2.77-2.11.93-1.04,1.74-2.22,2.44-3.48.52-.96,2-.11,1.48.85Z"/>
    <path class="st5" d="M407.6,685.69c-1.81,3.44-5.29,7.18-9.58,6.55-1.55-.22-2.96-1.15-3.63-2.59-.74-1.55-.7-3.37-.41-5.03.33-1.7,1.04-3.37,1.92-4.88.85-1.52,1.92-2.96,3.33-3.96,1.29-.89,3.03-1.22,4.48-.48,1.7.89,1.81,2.96,1.18,4.55-1.41,3.48-5.51,5.37-9.03,4.22-.22.81-.33,1.59-.37,2.4-.04,1.11.15,2.41,1,3.22.78.81,2.04,1.04,3.11.89,3-.48,5.18-3.26,6.51-5.74.52-1,2-.11,1.48.85ZM396.43,682.43c1.59.48,3.26.26,4.7-.67,1.18-.74,2.29-2.04,2.44-3.51.11-1.18-.81-1.81-1.96-1.63-1.22.15-2.22,1.18-3,2.11-.85,1.07-1.63,2.33-2.18,3.7Z"/>
    <path class="st5" d="M410.6,692.31c-.59.41-1.48.11-1.7-.59-.15-.52,0-1.11.44-1.55.26-.22.59-.26.89-.26.44,0,.81.33.93.78.15.59-.07,1.26-.56,1.63Z"/>
  </g>
</svg>